<svg xmlns="http://www.w3.org/2000/svg" viewBox="0 0 680 420" font-family="system-ui, sans-serif" role="img" aria-label="Capacity sweep: task latency vs server count">
<text x="340.0" y="26" text-anchor="middle" font-size="16" font-weight="600" fill="currentColor">Capacity sweep: task latency vs server count</text>
<rect x="68" y="48" width="452" height="316" fill="none" stroke="currentColor" stroke-opacity="0.25"/>
<line x1="68" y1="364.0" x2="520" y2="364.0" stroke="currentColor" stroke-opacity="0.08"/>
<text x="60" y="368.0" text-anchor="end" font-size="11" fill="currentColor" fill-opacity="0.7">0</text>
<line x1="68" y1="300.8" x2="520" y2="300.8" stroke="currentColor" stroke-opacity="0.08"/>
<text x="60" y="304.8" text-anchor="end" font-size="11" fill="currentColor" fill-opacity="0.7">20</text>
<line x1="68" y1="237.6" x2="520" y2="237.6" stroke="currentColor" stroke-opacity="0.08"/>
<text x="60" y="241.6" text-anchor="end" font-size="11" fill="currentColor" fill-opacity="0.7">40</text>
<line x1="68" y1="174.4" x2="520" y2="174.4" stroke="currentColor" stroke-opacity="0.08"/>
<text x="60" y="178.4" text-anchor="end" font-size="11" fill="currentColor" fill-opacity="0.7">60</text>
<line x1="68" y1="111.2" x2="520" y2="111.2" stroke="currentColor" stroke-opacity="0.08"/>
<text x="60" y="115.2" text-anchor="end" font-size="11" fill="currentColor" fill-opacity="0.7">80</text>
<line x1="68" y1="48.0" x2="520" y2="48.0" stroke="currentColor" stroke-opacity="0.08"/>
<text x="60" y="52.0" text-anchor="end" font-size="11" fill="currentColor" fill-opacity="0.7">100</text>
<text x="68.0" y="382" text-anchor="middle" font-size="11" fill="currentColor" fill-opacity="0.7">1</text>
<text x="218.7" y="382" text-anchor="middle" font-size="11" fill="currentColor" fill-opacity="0.7">2</text>
<text x="520.0" y="382" text-anchor="middle" font-size="11" fill="currentColor" fill-opacity="0.7">4</text>
<text x="294.0" y="412" text-anchor="middle" font-size="12" fill="currentColor" fill-opacity="0.8">inference servers</text>
<text x="16" y="206.0" text-anchor="middle" font-size="12" fill="currentColor" fill-opacity="0.8" transform="rotate(-90 16 206.0)">mean task latency (time units)</text>
<path d="M 68.0 90.3 L 218.7 104.4 L 520.0 129.2" fill="none" stroke="#0072b2" stroke-width="2.5"/>
<circle cx="68.0" cy="90.3" r="3.5" fill="#0072b2"/>
<circle cx="218.7" cy="104.4" r="3.5" fill="#0072b2"/>
<circle cx="520.0" cy="129.2" r="3.5" fill="#0072b2"/>
<line x1="536" y1="54" x2="556" y2="54" stroke="#0072b2" stroke-width="2.5"/>
<circle cx="546" cy="54" r="3.5" fill="#0072b2"/>
<text x="562" y="58" font-size="11" fill="currentColor" fill-opacity="0.85">concurrency 4</text>
<path d="M 68.0 130.8 L 218.7 201.7 L 520.0 248.6" fill="none" stroke="#d55e00" stroke-width="2.5"/>
<circle cx="68.0" cy="130.8" r="3.5" fill="#d55e00"/>
<circle cx="218.7" cy="201.7" r="3.5" fill="#d55e00"/>
<circle cx="520.0" cy="248.6" r="3.5" fill="#d55e00"/>
<line x1="536" y1="74" x2="556" y2="74" stroke="#d55e00" stroke-width="2.5"/>
<circle cx="546" cy="74" r="3.5" fill="#d55e00"/>
<text x="562" y="78" font-size="11" fill="currentColor" fill-opacity="0.85">concurrency 12</text>
</svg>
