<svg xmlns="http://www.w3.org/2000/svg" viewBox="0 0 680 420" font-family="system-ui, sans-serif" role="img" aria-label="Replication speedup - GIL build (3.14.2)">
<text x="340.0" y="26" text-anchor="middle" font-size="16" font-weight="600" fill="currentColor">Replication speedup - GIL build (3.14.2)</text>
<rect x="64" y="48" width="466" height="316" fill="none" stroke="currentColor" stroke-opacity="0.25"/>
<line x1="64" y1="364.0" x2="530" y2="364.0" stroke="currentColor" stroke-opacity="0.08"/>
<text x="56" y="368.0" text-anchor="end" font-size="11" fill="currentColor" fill-opacity="0.7">0x</text>
<line x1="64" y1="300.8" x2="530" y2="300.8" stroke="currentColor" stroke-opacity="0.08"/>
<text x="56" y="304.8" text-anchor="end" font-size="11" fill="currentColor" fill-opacity="0.7">1x</text>
<line x1="64" y1="237.6" x2="530" y2="237.6" stroke="currentColor" stroke-opacity="0.08"/>
<text x="56" y="241.6" text-anchor="end" font-size="11" fill="currentColor" fill-opacity="0.7">2x</text>
<line x1="64" y1="174.4" x2="530" y2="174.4" stroke="currentColor" stroke-opacity="0.08"/>
<text x="56" y="178.4" text-anchor="end" font-size="11" fill="currentColor" fill-opacity="0.7">3x</text>
<line x1="64" y1="111.2" x2="530" y2="111.2" stroke="currentColor" stroke-opacity="0.08"/>
<text x="56" y="115.2" text-anchor="end" font-size="11" fill="currentColor" fill-opacity="0.7">4x</text>
<line x1="64" y1="48.0" x2="530" y2="48.0" stroke="currentColor" stroke-opacity="0.08"/>
<text x="56" y="52.0" text-anchor="end" font-size="11" fill="currentColor" fill-opacity="0.7">5x</text>
<line x1="64" y1="300.8" x2="530" y2="300.8" stroke="currentColor" stroke-opacity="0.45" stroke-dasharray="4 3"/>
<text x="526" y="295.8" text-anchor="end" font-size="10" fill="currentColor" fill-opacity="0.6">parity (1x)</text>
<text x="64.0" y="382" text-anchor="middle" font-size="11" fill="currentColor" fill-opacity="0.7">1</text>
<text x="115.8" y="382" text-anchor="middle" font-size="11" fill="currentColor" fill-opacity="0.7">2</text>
<text x="219.3" y="382" text-anchor="middle" font-size="11" fill="currentColor" fill-opacity="0.7">4</text>
<text x="426.4" y="382" text-anchor="middle" font-size="11" fill="currentColor" fill-opacity="0.7">8</text>
<text x="530.0" y="382" text-anchor="middle" font-size="11" fill="currentColor" fill-opacity="0.7">10</text>
<text x="297.0" y="412" text-anchor="middle" font-size="12" fill="currentColor" fill-opacity="0.8">worker count</text>
<text x="16" y="206.0" text-anchor="middle" font-size="12" fill="currentColor" fill-opacity="0.8" transform="rotate(-90 16 206.0)">speedup vs sequential</text>
<path d="M 64.0 304.6 L 115.8 245.8 L 219.3 183.2 L 426.4 120.7 L 530.0 121.9" fill="none" stroke="#0072b2" stroke-width="2.5"/>
<circle cx="64.0" cy="304.6" r="3.5" fill="#0072b2"/>
<circle cx="115.8" cy="245.8" r="3.5" fill="#0072b2"/>
<circle cx="219.3" cy="183.2" r="3.5" fill="#0072b2"/>
<circle cx="426.4" cy="120.7" r="3.5" fill="#0072b2"/>
<circle cx="530.0" cy="121.9" r="3.5" fill="#0072b2"/>
<line x1="546" y1="54" x2="566" y2="54" stroke="#0072b2" stroke-width="2.5"/>
<circle cx="556" cy="54" r="3.5" fill="#0072b2"/>
<text x="572" y="58" font-size="11" fill="currentColor" fill-opacity="0.85">processes</text>
<path d="M 219.3 173.8 L 426.4 91.6" fill="none" stroke="#d55e00" stroke-width="2.5"/>
<circle cx="219.3" cy="173.8" r="3.5" fill="#d55e00"/>
<circle cx="426.4" cy="91.6" r="3.5" fill="#d55e00"/>
<line x1="546" y1="74" x2="566" y2="74" stroke="#d55e00" stroke-width="2.5"/>
<circle cx="556" cy="74" r="3.5" fill="#d55e00"/>
<text x="572" y="78" font-size="11" fill="currentColor" fill-opacity="0.85">interpreters</text>
</svg>
