<svg xmlns="http://www.w3.org/2000/svg" viewBox="0 0 680 420" font-family="system-ui, sans-serif" role="img" aria-label="Replication speedup - free-threaded build (3.14.2t)">
<text x="340.0" y="26" text-anchor="middle" font-size="16" font-weight="600" fill="currentColor">Replication speedup - free-threaded build (3.14.2t)</text>
<rect x="64" y="48" width="466" height="316" fill="none" stroke="currentColor" stroke-opacity="0.25"/>
<line x1="64" y1="364.0" x2="530" y2="364.0" stroke="currentColor" stroke-opacity="0.08"/>
<text x="56" y="368.0" text-anchor="end" font-size="11" fill="currentColor" fill-opacity="0.7">0x</text>
<line x1="64" y1="285.0" x2="530" y2="285.0" stroke="currentColor" stroke-opacity="0.08"/>
<text x="56" y="289.0" text-anchor="end" font-size="11" fill="currentColor" fill-opacity="0.7">1x</text>
<line x1="64" y1="206.0" x2="530" y2="206.0" stroke="currentColor" stroke-opacity="0.08"/>
<text x="56" y="210.0" text-anchor="end" font-size="11" fill="currentColor" fill-opacity="0.7">2x</text>
<line x1="64" y1="127.0" x2="530" y2="127.0" stroke="currentColor" stroke-opacity="0.08"/>
<text x="56" y="131.0" text-anchor="end" font-size="11" fill="currentColor" fill-opacity="0.7">3x</text>
<line x1="64" y1="48.0" x2="530" y2="48.0" stroke="currentColor" stroke-opacity="0.08"/>
<text x="56" y="52.0" text-anchor="end" font-size="11" fill="currentColor" fill-opacity="0.7">4x</text>
<line x1="64" y1="285.0" x2="530" y2="285.0" stroke="currentColor" stroke-opacity="0.45" stroke-dasharray="4 3"/>
<text x="526" y="280.0" text-anchor="end" font-size="10" fill="currentColor" fill-opacity="0.6">parity (1x)</text>
<text x="64.0" y="382" text-anchor="middle" font-size="11" fill="currentColor" fill-opacity="0.7">2</text>
<text x="180.5" y="382" text-anchor="middle" font-size="11" fill="currentColor" fill-opacity="0.7">4</text>
<text x="413.5" y="382" text-anchor="middle" font-size="11" fill="currentColor" fill-opacity="0.7">8</text>
<text x="530.0" y="382" text-anchor="middle" font-size="11" fill="currentColor" fill-opacity="0.7">10</text>
<text x="297.0" y="412" text-anchor="middle" font-size="12" fill="currentColor" fill-opacity="0.8">worker count</text>
<text x="16" y="206.0" text-anchor="middle" font-size="12" fill="currentColor" fill-opacity="0.8" transform="rotate(-90 16 206.0)">speedup vs sequential</text>
<path d="M 64.0 258.9 L 180.5 262.1 L 413.5 286.6" fill="none" stroke="#0072b2" stroke-width="2.5"/>
<circle cx="64.0" cy="258.9" r="3.5" fill="#0072b2"/>
<circle cx="180.5" cy="262.1" r="3.5" fill="#0072b2"/>
<circle cx="413.5" cy="286.6" r="3.5" fill="#0072b2"/>
<line x1="546" y1="54" x2="566" y2="54" stroke="#0072b2" stroke-width="2.5"/>
<circle cx="556" cy="54" r="3.5" fill="#0072b2"/>
<text x="572" y="58" font-size="11" fill="currentColor" fill-opacity="0.85">threads</text>
<path d="M 180.5 142.8 L 413.5 73.3 L 530.0 71.7" fill="none" stroke="#d55e00" stroke-width="2.5"/>
<circle cx="180.5" cy="142.8" r="3.5" fill="#d55e00"/>
<circle cx="413.5" cy="73.3" r="3.5" fill="#d55e00"/>
<circle cx="530.0" cy="71.7" r="3.5" fill="#d55e00"/>
<line x1="546" y1="74" x2="566" y2="74" stroke="#d55e00" stroke-width="2.5"/>
<circle cx="556" cy="74" r="3.5" fill="#d55e00"/>
<text x="572" y="78" font-size="11" fill="currentColor" fill-opacity="0.85">processes</text>
<path d="M 180.5 153.1 L 413.5 133.3" fill="none" stroke="#009e73" stroke-width="2.5"/>
<circle cx="180.5" cy="153.1" r="3.5" fill="#009e73"/>
<circle cx="413.5" cy="133.3" r="3.5" fill="#009e73"/>
<line x1="546" y1="94" x2="566" y2="94" stroke="#009e73" stroke-width="2.5"/>
<circle cx="556" cy="94" r="3.5" fill="#009e73"/>
<text x="572" y="98" font-size="11" fill="currentColor" fill-opacity="0.85">interpreters</text>
</svg>
